<svg width="67" height="101" xmlns="http://www.w3.org/2000/svg" style="vector-effect: non-scaling-stroke;" stroke="null" preserveAspectRatio="xMidYMid meet" version="1.0">
 <g stroke="null">
  <title stroke="null">Layer 1</title>
  <g stroke="null" transform="translate(0 588) scale(0.1 -0.1)" id="svg_1" fill="#000000">
   <path stroke="null" id="svg_2" d="m-25.70045,5359.07255l0,-537.15495l361.66744,0l361.66744,0l0,537.15495l0,537.15495l-361.66744,0l-361.66744,0l0,-537.15495zm331.20301,460.23582c2.96833,-1.09623 17.02883,-2.19247 31.24557,-2.37518c35.9324,-0.54812 48.2744,-5.66388 60.6164,-25.3961c7.34271,-11.51046 14.68542,-18.45328 27.4961,-26.12692c11.87331,-6.94282 18.74734,-16.99163 21.40321,-31.24269c3.59324,-19.91493 7.65516,-26.12692 24.05909,-37.63739c12.65445,-8.76988 24.684,-23.20363 32.65162,-38.73362l6.40534,-12.7894l-0.46869,-18.08787c-0.31245,-12.7894 0.15623,-19.54952 1.7185,-23.75175c10.31104,-25.76152 18.59111,-54.26361 17.9662,-61.02373c-0.31245,-2.92329 -1.87474,-5.66388 -4.37438,-7.12552c-3.43702,-2.00976 -4.84306,-1.64435 -12.02954,3.106c-9.06121,6.02929 -18.27866,7.12552 -23.27795,2.74059c-1.56228,-1.46164 -4.68683,-2.74059 -6.71779,-2.74059c-4.68683,0 -13.59182,7.85635 -15.1541,13.15481c-1.56228,6.57741 -5.46797,10.59694 -9.99858,10.59694c-4.84306,0 -7.03025,-4.01953 -4.84306,-8.76988c2.49964,-5.11576 20.93453,-25.2134 25.93382,-28.13669c2.65588,-1.64435 8.59253,-4.20223 13.27936,-6.02929c16.56015,-6.212 30.77688,-16.44352 46.86835,-34.16598c9.21744,-9.86611 17.02883,-20.09764 18.74734,-24.48257c5.78043,-13.70293 3.12455,-39.46445 -4.99929,-49.51326c-4.21815,-5.29847 -12.342,-5.48117 -23.43417,-0.54812c-10.93595,4.93305 -12.81068,4.56765 -17.49752,-2.00976c-8.74876,-12.05858 -2.8121,-26.12692 15.1541,-36.35844c9.37367,-5.29847 17.34129,-16.44352 19.99716,-27.95398c0.93736,-4.20223 2.96833,-10.59694 4.53061,-14.06835c2.8121,-6.3947 4.99929,-9.13528 21.71567,-26.67504c9.21744,-9.86611 14.21673,-20.64575 17.34129,-38.0028l1.87474,-10.59694l7.18648,1.46164c9.37367,1.82706 24.21531,1.46164 30.62066,-1.09623c5.93666,-2.19247 10.93595,-8.03906 19.0598,-21.92469c5.31174,-9.13528 5.93666,-11.32776 6.56157,-24.29987c0.78114,-18.81869 -2.18719,-29.78104 -13.74805,-50.24409c-9.84235,-17.53975 -22.34058,-32.33892 -32.96407,-38.91633c-6.56157,-4.20223 -8.4363,-4.38494 -35.30749,-4.38494c-20.46585,0 -29.05838,-0.73083 -30.46443,-2.37518c-0.93736,-1.09623 -2.34341,-2.19247 -3.12455,-2.19247c-0.62491,0 -4.53061,-2.37518 -8.74876,-5.29847c-7.96762,-5.48117 -25.46514,-9.31799 -43.27511,-9.31799c-9.68612,0 -17.9662,-4.38494 -27.80855,-14.25105c-4.21815,-4.20223 -9.21744,-8.03906 -11.40463,-8.58717c-2.03096,-0.54812 -5.46797,-1.27894 -7.65516,-1.82706c-5.78043,-1.46164 -13.90428,3.65411 -18.59111,11.69317c-2.18719,3.65411 -4.06192,7.67364 -4.06192,8.76988c0,0.91353 -3.74947,6.02929 -8.4363,11.32776c-6.87402,7.49093 -9.68612,9.31799 -13.90428,9.31799c-12.342,0 -16.09147,-15.34728 -14.52919,-60.29291c1.56228,-46.04185 5.93666,-64.49514 18.90357,-80.39054c4.53061,-5.48117 9.37367,-13.15481 10.62349,-16.80893c1.40605,-3.65411 5.31174,-11.32776 8.90499,-16.99163c4.53061,-7.12552 6.09288,-10.96234 4.99929,-12.24129c-1.7185,-2.00976 -165.75773,-6.212 -169.81966,-4.38494c-4.06192,1.82706 -2.49964,4.38494 10.46726,17.35705c7.18648,6.94282 15.46655,16.44352 18.43488,21.19387c2.96833,4.56765 7.03025,10.77964 8.90499,13.52023c11.40463,16.99163 16.87261,36.54115 21.71567,79.65972c1.09359,10.04882 2.8121,22.47281 3.74947,27.40587c0.93736,5.11576 2.03096,13.52023 2.65588,18.81869c0.78114,8.22176 0.31245,10.23153 -2.49964,13.88564c-2.96833,3.65411 -5.46797,4.38494 -18.12243,5.29847c-19.37225,1.27894 -28.74592,6.212 -39.05696,20.28034c-4.21815,5.66388 -8.74876,10.23153 -9.99858,10.23153c-1.24983,0 -9.06121,-3.83682 -17.18506,-8.76988l-14.68542,-8.58717l-17.18506,0.54812c-18.74734,0.54812 -19.68471,0.18271 -29.68329,-11.51046l-5.93666,-6.94282l-16.87261,1.09623l-16.87261,1.09623l-6.40534,-7.12552c-5.15552,-6.02929 -7.34271,-7.30823 -12.49823,-7.30823c-6.56157,0 -8.4363,1.82706 -14.0605,13.33752c-2.34341,4.75035 -3.43702,10.04882 -3.43702,16.80893c0,8.40447 -0.78114,10.96234 -6.24911,19.36681c-3.43702,5.48117 -6.24911,11.32776 -6.24911,13.15481c0,8.76988 -10.31104,21.37658 -17.65374,21.37658c-7.81139,0 -27.65233,23.20363 -27.65233,32.15621c0,2.19247 -0.62491,4.56765 -1.40605,5.29847c-0.78114,0.54812 -2.18719,5.66388 -3.12455,11.51046c-2.18719,13.52023 -6.40534,29.59834 -9.06121,34.16598c-1.24983,2.19247 -2.03096,9.68341 -2.03096,20.64575c0,15.52999 0.31245,17.53975 4.06192,23.20363c4.21815,6.57741 10.62349,10.04882 18.59111,10.04882c3.28078,0 6.24911,1.64435 8.59253,4.56765c6.71779,8.40447 16.87261,13.70293 26.09005,13.70293c4.53061,0 10.93595,1.27894 14.0605,2.74059c7.65516,3.83682 28.27724,3.65411 36.55731,-0.36541l6.56157,-2.92329l3.74947,5.11576c3.28078,4.38494 3.74947,6.212 2.8121,13.52023c-0.62491,5.66388 -2.49964,10.04882 -5.46797,13.70293c-4.21815,5.11576 -4.84306,5.11576 -22.02812,5.66388c-21.40321,0.36541 -28.43347,3.2887 -37.18223,14.79916c-3.28078,4.38494 -10.31104,11.69317 -15.46655,16.26082c-12.342,10.41423 -22.02812,22.1074 -24.684,29.41563c-1.09359,3.106 -3.12455,6.76011 -4.53061,8.03906c-3.28078,3.106 -7.03025,11.69317 -7.03025,15.7127c0,1.82706 1.56228,5.11576 3.43702,7.49093c2.8121,3.47141 3.43702,6.57741 3.59324,17.53975c0.46869,23.75175 2.49964,28.86751 21.40321,51.34032l16.87261,19.73223l12.81068,1.64435c16.56015,2.00976 20.15339,3.106 23.5904,6.76011c4.99929,5.29847 8.74876,17.17434 9.21744,29.05022c0.15623,6.212 -0.78114,8.95258 -4.68683,14.25105c-5.46797,7.12552 -6.24911,12.7894 -2.65588,18.45328c3.43702,5.48117 2.8121,10.96234 -2.34341,17.72246c-5.62421,7.67364 -6.87402,14.06835 -4.84306,25.03069c4.84306,26.12692 12.18577,34.71409 29.83952,34.71409c12.18577,0 18.27866,3.106 25.46514,12.7894c4.68683,6.3947 5.78043,9.5007 5.78043,15.52999c0,6.212 1.24983,9.5007 7.49893,18.81869c12.96691,19.73223 23.12172,26.30963 43.27511,28.6848c7.18648,0.73083 10.31104,2.19247 13.59182,5.84658c2.49964,2.74059 4.37438,6.212 4.37438,8.03906c0,3.106 11.09217,16.07811 16.87261,19.73223c8.4363,5.29847 19.99716,7.49093 34.68258,6.57741c8.12385,-0.54812 17.34129,-1.82706 20.30962,-2.92329l-0.00001,0.00001l0,-0.00003z"/>
  </g>
 </g>

</svg>